<svg xmlns="http://www.w3.org/2000/svg" width="32" height="32" viewBox="0 0 24 24" fill="none" stroke="#6c47ff" stroke-width="2" stroke-linecap="round" stroke-linejoin="round">
  <path d="M15 4V2"/>
  <path d="M15 16v-2"/>
  <path d="M8 9h2"/>
  <path d="M20 9h2"/>
  <path d="m21 15-1.4-1.4"/>
  <path d="M11.4 6.6 10 5"/>
  <path d="m3 7 1.4 1.4"/>
  <path d="M14 21v-4.1a2 2 0 0 0-1.1-1.7l-1.3-1.1a2 2 0 0 1 0-3.2l1.3-1.1a2 2 0 0 0 1.1-1.7V4"/>
  <path d="M7 21v-4.1a2 2 0 0 1 1.1-1.7l-1.3-1.1a2 2 0 0 0 0-3.2l-1.3-1.1a2 2 0 0 1-1.1-1.7V4"/>
</svg>